<svg width="24" height="27" viewBox="0 0 24 27" fill="none" xmlns="http://www.w3.org/2000/svg">
<path d="M14 18L10 22L14 26" stroke="#C3C3C3" stroke-width="2"/>
<path d="M18.0622 11.5C18.6766 12.5641 19 13.7712 19 15C19 16.2288 18.6766 17.4359 18.0622 18.5C17.4478 19.5641 16.5641 20.4478 15.5 21.0622C14.4359 21.6766 13.2288 22 12 22" stroke="#C3C3C3" stroke-width="2" stroke-linecap="round"/>
<path d="M10 12L14 8L10 4" stroke="#C3C3C3" stroke-width="2"/>
<path d="M5.93782 18.5C5.32344 17.4359 5 16.2288 5 15C5 13.7712 5.32344 12.5641 5.93782 11.5C6.5522 10.4359 7.43587 9.5522 8.5 8.93782C9.56413 8.32344 10.7712 8 12 8" stroke="#C3C3C3" stroke-width="2" stroke-linecap="round"/>
</svg>
