<svg width="21" height="25" viewBox="0 0 21 25" fill="none" xmlns="http://www.w3.org/2000/svg">
<path id="Icon" d="M10.3986 0L8.37794 3.57559C6.93408 6.13002 4.99894 8.45322 2.65531 10.4458L2.38983 10.6629C0.884629 11.9281 0.0246115 13.661 0.000479757 15.4772V15.707C-0.0393867 19.2636 2.40842 22.4881 6.19508 23.867L6.57855 24.0075C9.06209 24.9209 11.8678 24.9209 14.3513 24.0075H14.4398C18.2548 22.5724 20.7025 19.2953 20.6491 15.6943V10.1521C19.3778 12.6659 17.069 14.6786 14.1743 15.7964C14.1743 15.7964 14.1743 15.7964 14.0858 15.7964C13.9973 15.7964 12.9649 16.1668 12.5224 15.7964C12.1272 15.4502 12.0894 14.9041 12.4339 14.5194L12.5372 14.4556H12.6109C15.9969 12.2272 16.7863 8.09835 14.4103 5.04413C12.4929 2.51568 10.3986 0 10.3986 0Z" fill="#C3C3C3"/>
</svg>
